HIERARCHY
ROOT Hips
{
  OFFSET -32.5998 29.0326 120.673
  CHANNELS 6 Xposition Yposition Zposition Zrotation Xrotation Yrotation
  JOINT LeftUpLeg
  {
    OFFSET 8.64259 1.95398 -2.38835
    CHANNELS 3 Zrotation Xrotation Yrotation
    JOINT LeftLeg
    {
      OFFSET 43.7702 0 0
      CHANNELS 3 Zrotation Xrotation Yrotation
      JOINT LeftFoot
      {
        OFFSET 40.6238 0 0
        CHANNELS 3 Zrotation Xrotation Yrotation
        JOINT LeftToeBase
        {
          OFFSET 12.7242 0 0
          CHANNELS 3 Zrotation Xrotation Yrotation
          End Site
          {
            OFFSET 0 0 0
          }
        }
      }
    }
  }
  JOINT RightUpLeg
  {
    OFFSET -8.2249 1.95398 -2.59336
    CHANNELS 3 Zrotation Xrotation Yrotation
    JOINT RightLeg
    {
      OFFSET 43.5653 0 0
      CHANNELS 3 Zrotation Xrotation Yrotation
      JOINT RightFoot
      {
        OFFSET 40.6238 0 0
        CHANNELS 3 Zrotation Xrotation Yrotation
        JOINT RightToeBase
        {
          OFFSET 12.7242 0 0
          CHANNELS 3 Zrotation Xrotation Yrotation
          End Site
          {
            OFFSET 0 0 0
          }
        }
      }
    }
  }
  JOINT Spine
  {
    OFFSET 0.165834 0.87714 6.61349
    CHANNELS 3 Zrotation Xrotation Yrotation
    JOINT Spine1
    {
      OFFSET 7.38963 1.71661e-005 0
      CHANNELS 3 Zrotation Xrotation Yrotation
      JOINT Spine2
      {
        OFFSET 11.9445 1.14441e-005 0
        CHANNELS 3 Zrotation Xrotation Yrotation
        JOINT Spine3
        {
          OFFSET 14.7254 4.19617e-005 0
          CHANNELS 3 Zrotation Xrotation Yrotation
          JOINT Spine4
          {
            OFFSET 10.9679 0 0
            CHANNELS 3 Zrotation Xrotation Yrotation
            JOINT RightShoulder
            {
              OFFSET 2.46616 -1.6653 3.69651
              CHANNELS 3 Zrotation Xrotation Yrotation
              JOINT RightArm
              {
                OFFSET 13.0012 0 0
                CHANNELS 3 Zrotation Xrotation Yrotation
                JOINT RightForeArm
                {
                  OFFSET 28.7848 1.62311e-005 0
                  CHANNELS 3 Zrotation Xrotation Yrotation
                  JOINT RightHand
                  {
                    OFFSET 26.5688 1.62095e-005 0
                    CHANNELS 3 Zrotation Xrotation Yrotation
                    End Site
                    {
                      OFFSET 0 0 0
                    }
                  }
                }
              }
            }
            JOINT LeftShoulder
            {
              OFFSET 2.38034 -1.29275 -3.7523
              CHANNELS 3 Zrotation Xrotation Yrotation
              JOINT LeftArm
              {
                OFFSET 16.3182 6.07031e-005 0
                CHANNELS 3 Zrotation Xrotation Yrotation
                JOINT LeftForeArm
                {
                  OFFSET 27.0901 0 0
                  CHANNELS 3 Zrotation Xrotation Yrotation
                  JOINT LeftHand
                  {
                    OFFSET 24.5451 1.51738e-005 0
                    CHANNELS 3 Zrotation Xrotation Yrotation
                    End Site
                    {
                      OFFSET 0 0 0
                    }
                  }
                }
              }
            }
            JOINT Neck
            {
              OFFSET 5.0226 -0.0266342 0
              CHANNELS 3 Zrotation Xrotation Yrotation
              JOINT Head
              {
                OFFSET 6.69364 2.86102e-005 0
                CHANNELS 3 Zrotation Xrotation Yrotation
                End Site
                {
                  OFFSET 0 0 0
                }
              }
            }
          }
        }
      }
    }
  }
}
MOTION
Frames:	18
Frame Time:	0.0416667
35.0742 101.402 18.6256 -161.07 -80.9508 -163.413 -174.643 -7.38911 87.8724 -8.69037 -1.41147 1.02822 68.0497 3.69873 -2.6352 18.8258 -9.42775 9.60122 169.73 -4.83893 84.9128 -12.1767 -6.19566 0.210172 67.1575 -3.36462 2.2075 25.5874 0.294915 4.16878 0.373061 7.38738 -89.8819 12.0988 0.797458 0.147813 0.428101 0.803188 0.11256 -22.1086 0.71616 0.380664 -2.096 0.716164 0.380661 90.0285 -25.3417 -108.615 23.8222 1.0544 -24.0943 -0.0505738 11.9843 -71.3808 1.76539 -0.0969799 -8.4252 -88.152 -45.7195 80.6734 -7.21495 10.4895 -35.8114 -34.6875 -27.5804 -67.7111 -3.48987 -0.121579 -1.18874 0.740882 -1.66274 -3.45052 -11.7771 -1.24494 1.37031 
34.7828 101.399 18.702 -164.315 -81.579 -165.924 -173.814 -6.11554 89.1976 -10.2208 -0.258826 0.612775 68.5954 3.67382 -2.88482 17.0311 -9.48928 7.96179 170.539 -5.27253 86.1521 -10.8537 -5.8198 0.173228 65.9385 -2.89316 1.58783 26.0915 0.0284326 4.38833 0.295538 7.32484 -90.0068 12.2244 0.58422 -0.0789375 0.553574 0.580181 -0.104586 -21.9826 0.580929 0.100298 -1.96996 0.580932 0.100294 90.3901 -24.3952 -108.26 24.4494 0.53389 -24.321 0.212743 12.1434 -71.2492 1.99535 -0.105445 -8.50107 -88.1153 -46.5147 80.8888 -7.76981 10.4641 -36.3335 -34.1963 -28.7783 -66.8453 -5.40446 -0.147871 -2.16001 0.508504 -1.53963 -3.10238 -11.6009 -1.22089 1.96267 
34.7708 101.428 18.8342 -164.483 -81.4258 -165.943 -173.645 -6.47857 89.4316 -9.97722 0.247581 0.538137 68.5175 3.67622 -2.8307 17.466 -9.97812 9.22259 170.483 -5.54626 86.2761 -10.9909 -5.78531 0.255333 66.2086 -3.07363 1.17276 25.4011 0.203469 4.78038 0.300815 7.3445 -90.0232 12.1849 0.586989 -0.11165 0.514089 0.5815 -0.137386 -22.0221 0.593401 0.0699266 -2.00947 0.593405 0.0699317 90.3107 -24.519 -108.377 24.3795 0.633129 -24.2333 -0.096259 12.0258 -71.2364 2.26006 -0.116626 -8.63961 -88.1068 -46.4838 80.8959 -7.73428 9.61471 -36.3947 -32.4298 -27.9433 -65.5213 -5.40634 -0.178074 -0.953506 0.599689 -1.54388 -3.04092 -11.8336 -1.2085 1.59765 
34.7806 101.424 18.9107 -164.875 -81.4617 -166.322 -173.718 -6.50836 89.3681 -9.98764 0.384098 0.614681 68.4696 3.67957 -2.61628 17.7907 -9.85472 9.32618 170.49 -5.58232 86.2772 -10.9693 -5.71122 0.248921 66.3297 -3.17581 0.955318 25.0854 0.160649 5.40012 0.2991 7.34643 -90.0408 12.19 0.575201 -0.145477 0.519143 0.568239 -0.170664 -22.017 0.592326 0.0341338 -2.00439 0.592329 0.0341214 90.3732 -24.2545 -108.359 24.6499 0.859652 -24.2057 0.0955292 12.0276 -71.1 1.66895 -0.0923851 -8.32612 -88.1626 -46.7894 80.8692 -7.47215 9.63713 -36.4791 -32.5479 -28.1785 -65.3198 -4.76906 -0.164925 -0.686937 0.52237 -1.49834 -2.60118 -11.6874 -1.20187 1.25075 
34.7617 101.408 18.9566 -164.918 -81.559 -166.271 -173.815 -6.33381 89.3542 -10.2105 0.239061 0.769509 68.7147 3.74177 -2.62283 17.4751 -10.0766 9.40067 170.648 -5.84521 86.4309 -10.2785 -5.51626 0.185846 66.0064 -3.05791 1.56596 25.6719 0.252988 4.19484 0.327279 7.3429 -90.0498 12.1887 0.626969 -0.169224 0.517864 0.618915 -0.196657 -22.0185 0.648846 0.0270435 -2.00586 0.648837 0.0270376 90.5147 -24.4592 -107.963 24.3915 0.632471 -24.2582 0.0653031 12.1273 -71.2844 2.16727 -0.114715 -8.67283 -88.2466 -46.6438 80.7096 -7.15775 9.78834 -36.7383 -32.8185 -28.3645 -65.2206 -4.0234 -0.147807 -0.396428 1.0173 -1.66942 -2.75269 -12.3115 -1.33541 1.14217 
34.7593 101.414 19.0265 -164.972 -81.5989 -166.338 -173.669 -6.27813 89.4708 -10.3016 0.145821 0.617751 68.7441 3.71604 -2.89764 17.4975 -9.91952 9.1521 170.651 -5.71025 86.4572 -10.6721 -5.41582 0.174571 66.3529 -3.21139 1.27108 25.0817 0.361098 4.67658 0.318813 7.33386 -90.0434 12.2067 0.613197 -0.154978 0.535894 0.605778 -0.18182 -22.0004 0.631416 0.0364806 -1.98778 0.631424 0.0364834 90.4109 -24.5429 -108.15 24.312 0.696369 -24.1616 0.513481 12.2503 -71.419 2.14631 -0.109519 -8.48141 -88.1913 -46.7597 80.8185 -7.04312 9.73991 -36.7365 -33.0111 -28.3999 -65.3744 -4.13922 -0.149167 -0.573292 0.814541 -1.67822 -2.90296 -12.1971 -1.3467 1.40746 
34.7473 101.407 19.1259 -165.419 -81.6122 -166.633 -173.468 -6.29966 89.7437 -10.3412 0.597484 0.497263 68.8066 3.78762 -2.67927 17.6365 -9.91994 9.28733 170.706 -5.95476 86.5834 -10.3014 -5.41012 0.204274 65.9726 -3.04861 1.53014 25.8037 0.178331 4.26677 0.32286 7.32544 -90.0559 12.2236 0.615262 -0.180274 0.552786 0.606725 -0.207189 -21.9836 0.640993 0.0129813 -1.97089 0.640995 0.0129718 90.3861 -24.4319 -108.253 24.5568 0.795383 -24.0867 0.214558 12.116 -71.4197 2.52965 -0.128942 -8.77891 -88.2086 -46.6729 80.7745 -7.19924 9.75403 -36.8216 -32.4813 -28.404 -65.1711 -4.71477 -0.163678 -0.799024 0.680829 -1.75526 -3.18824 -12.1759 -1.41242 1.76679 
34.7661 101.405 19.1727 -166.185 -81.7389 -167.452 -173.589 -6.25101 89.6167 -10.3242 0.581239 0.578873 68.7778 3.73498 -2.81549 17.8671 -10.0462 9.73226 170.623 -5.82878 86.5089 -10.4458 -5.43172 0.263858 66.1604 -3.19113 1.16872 25.2933 0.308001 4.56127 0.310247 7.32015 -90.0406 12.2341 0.597423 -0.147926 0.563288 0.590332 -0.174085 -21.973 0.614258 0.0384719 -1.96032 0.614257 0.0384673 90.3394 -24.4805 -108.332 24.5195 0.918598 -24.0275 -0.0929027 11.9744 -71.4749 2.3751 -0.12198 -8.7025 -88.2026 -46.578 80.7651 -7.61047 9.48345 -36.8562 -30.949 -27.8619 -64.8051 -6.61185 -0.203191 -1.31037 0.646394 -1.73464 -3.13967 -11.9166 -1.37534 1.49201 
34.7766 101.399 19.212 -165.986 -81.7435 -167.256 -173.56 -6.28084 89.6233 -10.3035 0.631627 0.544439 68.7928 3.77954 -2.62377 17.7325 -9.8835 9.3191 170.603 -5.85585 86.5123 -10.4416 -5.28762 0.283338 66.4309 -3.37685 1.03208 25.0307 0.296858 4.98651 0.319569 7.31971 -90.0528 12.2351 0.610181 -0.173637 0.564252 0.60194 -0.200329 -21.9721 0.634149 0.0177851 -1.95941 0.634146 0.0177727 90.3706 -24.3934 -108.303 24.4332 0.767378 -23.9241 -0.241836 11.9422 -71.6016 2.93187 -0.145472 -8.89229 -88.2831 -46.6318 80.6504 -7.15043 9.65793 -36.6095 -32.0897 -28.0775 -65.3798 -5.45896 -0.17798 -1.12551 0.716918 -1.71267 -2.79141 -11.9278 -1.37947 1.18263 
34.8049 101.391 19.2447 -166.127 -81.7238 -167.346 -173.553 -6.24973 89.6589 -10.4595 0.501138 0.571672 69.0019 3.81765 -2.81779 17.4261 -10.0706 9.34275 170.637 -5.9677 86.498 -10.1707 -5.21753 0.263966 65.9084 -3.02524 1.63235 26.018 0.0591727 4.38713 0.320542 7.32986 -90.0385 12.2148 0.618939 -0.145904 0.54395 0.611916 -0.173004 -21.9924 0.634165 0.0468569 -1.97974 0.634172 0.0468728 90.3232 -24.5228 -108.348 24.4047 0.779553 -23.9992 -0.0996148 12.0324 -71.519 2.66277 -0.130591 -8.6843 -88.128 -46.3199 80.8304 -7.10705 10.2288 -36.6062 -33.5464 -28.2771 -66.5453 -6.12339 -0.157795 -2.29154 0.910688 -1.63429 -2.98266 -12.0893 -1.28417 1.36821 
34.8323 101.41 19.2578 -165.417 -81.8298 -166.622 -173.716 -6.30669 89.5283 -10.061 0.463684 0.719304 68.6847 3.74488 -2.60218 17.516 -9.92069 9.17236 170.595 -5.75692 86.525 -10.4914 -5.58995 0.31112 66.0639 -3.1279 1.09851 25.7686 0.105405 4.59333 0.325528 7.32016 -90.0372 12.2341 0.629427 -0.144595 0.563338 0.62245 -0.17216 -21.973 0.643779 0.0512676 -1.9604 0.643777 0.0512643 90.2334 -24.5197 -108.543 24.5342 0.954466 -23.9698 -0.324152 11.8954 -71.4003 2.55656 -0.121015 -8.46168 -88.0267 -46.0254 80.931 -7.75308 9.46389 -36.5587 -31.7476 -27.8292 -65.1277 -5.58102 -0.192721 -0.74943 0.991216 -1.67345 -3.30883 -12.1558 -1.31032 1.85251 
34.8456 101.396 19.2619 -164.888 -82.0213 -166.092 -173.819 -6.02544 89.428 -10.2694 0.262553 0.792396 68.897 3.80314 -2.64422 17.3547 -10.0641 9.26204 170.685 -5.52923 86.5864 -10.5075 -5.3174 0.276181 66.2341 -3.24339 1.03724 25.3346 0.131869 5.13874 0.336695 7.29153 -90.0487 12.2915 0.646105 -0.16991 0.620671 0.638006 -0.19818 -21.9158 0.667299 0.0321492 -1.90313 0.667296 0.0321372 90.3671 -24.3895 -108.313 24.6423 0.897434 -24.1198 -0.579866 11.8088 -71.2161 2.45129 -0.117658 -8.45098 -88.165 -46.2252 80.7538 -7.68781 9.48668 -36.5107 -32.2741 -28.1563 -65.2365 -4.80948 -0.171824 -0.529344 0.902943 -1.73046 -3.1766 -12.2367 -1.38853 1.82663 
34.8981 101.403 19.297 -165.268 -82.1013 -166.528 -173.802 -6.04837 89.3953 -10.0851 0.391568 0.718773 68.7956 3.83422 -2.57137 17.6432 -9.87495 9.21721 170.685 -5.55776 86.5341 -10.3349 -5.20792 0.243381 66.1215 -3.15898 1.08164 25.5807 0.029388 5.15309 0.318817 7.28324 -90.0562 12.308 0.60694 -0.180732 0.637224 0.598406 -0.207279 -21.8991 0.6332 0.0100432 -1.88642 0.633198 0.0100359 90.37 -24.2276 -108.379 24.5814 0.812408 -24.0801 -0.545371 11.8289 -71.2849 2.52133 -0.120097 -8.46517 -88.2989 -46.6479 80.6286 -7.31606 9.2607 -36.2834 -32.6261 -28.0839 -65.3879 -4.48791 -0.163504 -0.418737 0.802788 -1.58658 -2.67061 -12.24 -1.29076 1.4094 
34.9561 101.377 19.3147 -165.941 -82.2275 -167.254 -173.981 -5.93055 89.2264 -10.1419 0.124576 0.855506 68.797 3.72498 -2.96764 17.8638 -9.87493 9.43278 170.627 -5.31899 86.447 -10.6218 -5.1818 0.285464 66.2598 -3.19528 1.07946 25.4353 0.109957 5.072 0.291278 7.28169 -90.0438 12.311 0.558145 -0.150483 0.64016 0.550974 -0.174905 -21.896 0.577559 0.0242263 -1.88331 0.577559 0.0242213 90.1563 -24.4007 -108.763 24.0178 1.02104 -23.8715 -0.274306 11.911 -71.702 2.02255 -0.096815 -8.08655 -88.129 -46.3413 80.8326 -7.04697 9.90554 -36.1504 -34.071 -28.2842 -66.4625 -4.58946 -0.141897 -1.32945 0.975061 -1.52501 -2.52554 -12.1215 -1.22771 1.18012 
34.9497 101.386 19.3531 -165.86 -82.2616 -167.106 -173.868 -5.93859 89.3418 -10.0869 0.452117 0.756437 68.8179 3.83449 -2.57146 17.4517 -10.0914 9.40308 170.646 -5.34398 86.5074 -10.5878 -5.20875 0.296243 66.2828 -3.2467 1.06444 25.4637 0.0962696 5.08013 0.307558 7.29178 -90.0483 12.2909 0.588361 -0.162683 0.6201 0.580634 -0.18843 -21.9161 0.610048 0.0216701 -1.90348 0.610049 0.0216701 90.401 -24.374 -108.246 24.0868 1.18311 -24.0792 -1.51555 11.4473 -72.4896 3.25192 -0.128551 -8.08526 -88.0895 -45.6636 80.7607 -7.77997 9.93769 -36.0546 -35.1724 -28.1801 -67.2139 -6.92898 -0.177357 -2.3548 1.14767 -1.6541 -2.89084 -12.0587 -1.31409 1.40755 
34.9346 101.392 19.368 -166.333 -82.2779 -167.593 -173.926 -5.92187 89.3037 -10.1335 0.37199 0.829627 68.8544 3.81423 -2.7436 17.546 -10.1306 9.56243 170.695 -5.46476 86.549 -10.4185 -5.14945 0.243165 66.2463 -3.23959 1.0437 25.3873 0.151573 4.99074 0.3034 7.32031 -90.0421 12.2338 0.583096 -0.149285 0.562965 0.575962 -0.174806 -21.9732 0.601008 0.0328727 -1.9606 0.601 0.0328676 90.5463 -24.127 -108.041 23.9954 1.79701 -24.0701 0.577701 11.8472 -73.9677 3.18946 -0.106468 -7.45917 -87.8295 -45.311 81.1015 -6.4362 10.8832 -36.5136 -35.5166 -28.0481 -68.6866 -9.34948 -0.183471 -2.75501 1.22342 -1.77673 -3.40335 -11.7532 -1.38855 1.91063 
35.0037 101.403 19.292 -166.351 -82.504 -167.687 -174.074 -5.70203 89.1444 -10.026 0.0304509 0.896782 68.8394 3.8331 -2.82419 17.1417 -9.72762 8.47912 170.664 -5.10235 86.477 -10.5438 -4.87005 0.295933 66.2969 -3.22684 1.15975 25.1711 0.181332 5.19924 0.283929 7.32889 -90.0713 12.2166 0.53063 -0.201445 0.54575 0.521259 -0.224613 -21.9903 0.566642 -0.0326479 -1.97761 0.566641 -0.0326584 91.272 -23.0376 -106.925 23.6794 1.85671 -25.1818 3.07355 12.38 -75.4878 2.83285 -0.0902422 -7.17071 -87.7386 -44.7959 81.1443 -4.96258 10.7481 -36.9222 -36.5115 -27.3674 -70.0994 -9.73759 -0.152944 -3.40016 1.76765 -1.44859 -2.35208 -12.2533 -1.15262 1.06381 
35.0185 101.394 19.2404 -165.589 -82.6302 -166.708 -173.955 -5.40468 89.3701 -10.2223 0.363334 0.816031 68.8098 3.81631 -2.61029 17.5247 -9.85756 9.07152 170.818 -5.11355 86.7104 -10.218 -5.06165 0.306122 66.1285 -3.22631 0.993832 25.0114 0.289275 5.04074 0.293425 7.3307 -90.0953 12.2131 0.538169 -0.250163 0.542294 0.526646 -0.273616 -21.9937 0.588477 -0.0768443 -1.98109 0.588475 -0.0768482 91.8091 -21.9299 -106.197 22.9766 2.43021 -26.4644 2.81141 11.8293 -77.5589 3.29582 -0.0934281 -7.0226 -87.3695 -43.421 81.4674 -1.35371 11.3107 -38.1551 -37.899 -26.2778 -72.9365 -10.7409 -0.15622 -3.46509 1.53402 -1.65202 -2.14818 -11.5892 -1.354 0.642926 
